<?xml version="1.0" standalone="no"?>
<!DOCTYPE svg PUBLIC "-//W3C//DTD SVG 20010904//EN"
 "http://www.w3.org/TR/2001/REC-SVG-20010904/DTD/svg10.dtd">
<svg version="1.0" xmlns="http://www.w3.org/2000/svg"
 width="512.000000pt" height="512.000000pt" viewBox="0 0 512.000000 512.000000"
 preserveAspectRatio="xMidYMid meet">
<metadata>
Created by potrace 1.11, written by Peter Selinger 2001-2013
</metadata>
<g transform="translate(0.000000,512.000000) scale(0.100000,-0.100000)"
fill="#000000" stroke="none">
<path d="M749 3611 c-148 -37 -256 -142 -304 -296 -17 -52 -18 -109 -18 -733
0 -373 3 -701 7 -730 22 -164 156 -307 322 -345 83 -20 1426 -18 1494 2 99 29
198 108 253 202 57 100 57 90 57 855 -1 673 -1 705 -20 760 -47 136 -142 232
-275 280 -46 16 -105 18 -751 19 -614 2 -710 0 -765 -14z m1255 -1376 l236
-315 -745 0 -745 0 27 38 c82 111 336 432 343 432 7 0 106 -116 251 -293 14
-18 20 -13 110 103 52 68 99 128 104 134 6 6 46 57 89 114 43 56 82 102 86
102 4 0 114 -142 244 -315z"/>
<path d="M2989 3601 c-1 -35 -1 -362 0 -383 1 -17 48 -18 850 -18 800 0 849 1
853 18 2 9 3 105 3 212 l-2 195 -851 1 -852 0 -1 -25z"/>
<path d="M2997 2768 c-14 -9 -16 -418 -2 -419 6 0 387 -2 848 -2 737 -2 840 0
846 13 5 12 7 275 2 390 l-1 25 -841 0 c-462 0 -846 -3 -852 -7z"/>
<path d="M2989 1913 c-4 -36 -3 -407 1 -412 3 -4 388 -8 855 -8 l850 0 -1 201
c-1 111 -2 207 -3 214 -1 9 -178 12 -851 12 -467 0 -850 -3 -851 -7z"/>
</g>
</svg>
